<?xml version="1.0" encoding="UTF-8" standalone="no"?>
<!DOCTYPE svg PUBLIC "-//W3C//DTD SVG 1.1//EN"
 "http://www.w3.org/Graphics/SVG/1.1/DTD/svg11.dtd">
<!-- Generated by graphviz version 2.47.0 (20210316.0004)
 -->
<!-- Title: dependencies Pages: 1 -->
<svg width="657pt" height="355pt"
 viewBox="0.00 0.00 657.00 355.00" xmlns="http://www.w3.org/2000/svg" xmlns:xlink="http://www.w3.org/1999/xlink">
<g id="graph0" class="graph" transform="scale(1 1) rotate(0) translate(4 351)">
<title>dependencies</title>
<polygon fill="white" stroke="transparent" points="-4,4 -4,-351 653,-351 653,4 -4,4"/>
<text text-anchor="start" x="303.51" y="-42.4" font-family="Times-12" font-weight="bold" font-size="14.00">Legend</text>
<polygon fill="#ffffb3" stroke="transparent" points="90.5,-10 90.5,-30 110.5,-30 110.5,-10 90.5,-10"/>
<text text-anchor="start" x="114.13" y="-15.4" font-family="Times-12" font-size="14.00"> &#160;Declarations</text>
<polygon fill="#8dd3c7" stroke="transparent" points="203.5,-10 203.5,-30 223.5,-30 223.5,-10 203.5,-10"/>
<text text-anchor="start" x="227.23" y="-15.4" font-family="Times-12" font-size="14.00"> &#160;Module</text>
<polygon fill="#80b1d3" stroke="transparent" points="289.5,-10 289.5,-30 309.5,-30 309.5,-10 289.5,-10"/>
<text text-anchor="start" x="313.28" y="-15.4" font-family="Times-12" font-size="14.00"> &#160;Bootstrap</text>
<polygon fill="#fdb462" stroke="transparent" points="386.5,-10 386.5,-30 406.5,-30 406.5,-10 386.5,-10"/>
<text text-anchor="start" x="410.17" y="-15.4" font-family="Times-12" font-size="14.00"> &#160;Providers</text>
<polygon fill="#fb8072" stroke="transparent" points="482.5,-10 482.5,-30 502.5,-30 502.5,-10 482.5,-10"/>
<text text-anchor="start" x="506.23" y="-15.4" font-family="Times-12" font-size="14.00"> &#160;Exports</text>
<g id="clust1" class="cluster">
<title>cluster_AppModule</title>
<polygon fill="none" stroke="black" stroke-dasharray="1,5" points="182,-214 182,-339 438,-339 438,-214 182,-214"/>
</g>
<g id="clust3" class="cluster">
<title>cluster_AppModule_imports</title>
<polygon fill="none" stroke="black" points="328,-222 328,-274 430,-274 430,-222 328,-222"/>
</g>
<g id="clust6" class="cluster">
<title>cluster_AppModule_providers</title>
<polygon fill="none" stroke="black" points="190,-222 190,-274 320,-274 320,-222 190,-222"/>
</g>
<g id="clust7" class="cluster">
<title>cluster_PrismaModule</title>
<polygon fill="none" stroke="black" stroke-dasharray="1,5" points="8,-70 8,-282 174,-282 174,-70 8,-70"/>
</g>
<g id="clust10" class="cluster">
<title>cluster_PrismaModule_exports</title>
<polygon fill="none" stroke="black" points="41,-222 41,-274 157,-274 157,-222 41,-222"/>
</g>
<g id="clust12" class="cluster">
<title>cluster_PrismaModule_providers</title>
<polygon fill="none" stroke="black" points="16,-78 16,-130 166,-130 166,-78 16,-78"/>
</g>
<g id="clust13" class="cluster">
<title>cluster_SendMailModule</title>
<polygon fill="none" stroke="black" stroke-dasharray="1,5" points="453,-70 453,-282 641,-282 641,-70 453,-70"/>
</g>
<g id="clust16" class="cluster">
<title>cluster_SendMailModule_exports</title>
<polygon fill="none" stroke="black" points="471,-222 471,-274 603,-274 603,-222 471,-222"/>
</g>
<g id="clust18" class="cluster">
<title>cluster_SendMailModule_providers</title>
<polygon fill="none" stroke="black" points="461,-78 461,-130 633,-130 633,-78 461,-78"/>
</g>
<g id="clust19" class="cluster">
<title>cluster_UserModule</title>
<polygon fill="none" stroke="black" stroke-dasharray="1,5" points="297,-138 297,-206 445,-206 445,-138 297,-138"/>
</g>
<g id="clust24" class="cluster">
<title>cluster_UserModule_providers</title>
<polygon fill="none" stroke="black" points="305,-146 305,-198 437,-198 437,-146 305,-146"/>
</g>
<!-- UserModule -->
<g id="node1" class="node">
<title>UserModule</title>
<polygon fill="#8dd3c7" stroke="black" points="421.98,-266 418.98,-270 397.98,-270 394.98,-266 336.02,-266 336.02,-230 421.98,-230 421.98,-266"/>
<text text-anchor="middle" x="379" y="-243.8" font-family="Times,serif" font-size="14.00">UserModule</text>
</g>
<!-- AppModule -->
<g id="node2" class="node">
<title>AppModule</title>
<polygon fill="#8dd3c7" stroke="black" points="358.66,-331 355.66,-335 334.66,-335 331.66,-331 275.34,-331 275.34,-295 358.66,-295 358.66,-331"/>
<text text-anchor="middle" x="317" y="-308.8" font-family="Times,serif" font-size="14.00">AppModule</text>
</g>
<!-- UserModule&#45;&gt;AppModule -->
<g id="edge1" class="edge">
<title>UserModule&#45;&gt;AppModule</title>
<path fill="none" stroke="black" d="M347.42,-266.11C347.42,-266.11 347.42,-284.99 347.42,-284.99"/>
<polygon fill="black" stroke="black" points="343.92,-284.99 347.42,-294.99 350.92,-284.99 343.92,-284.99"/>
</g>
<!-- AppService -->
<g id="node3" class="node">
<title>AppService</title>
<ellipse fill="#fdb462" stroke="black" cx="255" cy="-248" rx="56.74" ry="18"/>
<text text-anchor="middle" x="255" y="-243.8" font-family="Times,serif" font-size="14.00">AppService</text>
</g>
<!-- AppService&#45;&gt;AppModule -->
<g id="edge2" class="edge">
<title>AppService&#45;&gt;AppModule</title>
<path fill="none" stroke="black" d="M293.4,-261.47C293.4,-261.47 293.4,-284.86 293.4,-284.86"/>
<polygon fill="black" stroke="black" points="289.9,-284.86 293.4,-294.86 296.9,-284.86 289.9,-284.86"/>
</g>
<!-- PrismaService  -->
<g id="node4" class="node">
<title>PrismaService </title>
<polygon fill="#fb8072" stroke="black" points="149.36,-266 48.64,-266 48.64,-230 149.36,-230 149.36,-266"/>
<text text-anchor="middle" x="99" y="-243.8" font-family="Times,serif" font-size="14.00">PrismaService </text>
</g>
<!-- PrismaModule -->
<g id="node5" class="node">
<title>PrismaModule</title>
<polygon fill="#8dd3c7" stroke="black" points="148.43,-190 145.43,-194 124.43,-194 121.43,-190 49.57,-190 49.57,-154 148.43,-154 148.43,-190"/>
<text text-anchor="middle" x="99" y="-167.8" font-family="Times,serif" font-size="14.00">PrismaModule</text>
</g>
<!-- PrismaModule&#45;&gt;UserModule -->
<g id="edge7" class="edge">
<title>PrismaModule&#45;&gt;UserModule</title>
<path fill="none" stroke="black" d="M115.41,-190.11C115.41,-199.9 115.41,-210 115.41,-210 115.41,-210 364.67,-210 364.67,-210 364.67,-210 364.67,-219.89 364.67,-219.89"/>
<polygon fill="black" stroke="black" points="361.17,-219.89 364.67,-229.89 368.17,-219.89 361.17,-219.89"/>
</g>
<!-- PrismaModule&#45;&gt;PrismaService  -->
<g id="edge3" class="edge">
<title>PrismaModule&#45;&gt;PrismaService </title>
<path fill="none" stroke="black" stroke-dasharray="5,2" d="M82.59,-190.01C82.59,-190.01 82.59,-219.85 82.59,-219.85"/>
<polygon fill="black" stroke="black" points="79.09,-219.85 82.59,-229.85 86.09,-219.85 79.09,-219.85"/>
</g>
<!-- PrismaService -->
<g id="node6" class="node">
<title>PrismaService</title>
<ellipse fill="#fdb462" stroke="black" cx="91" cy="-104" rx="66.63" ry="18"/>
<text text-anchor="middle" x="91" y="-99.8" font-family="Times,serif" font-size="14.00">PrismaService</text>
</g>
<!-- PrismaService&#45;&gt;PrismaModule -->
<g id="edge4" class="edge">
<title>PrismaService&#45;&gt;PrismaModule</title>
<path fill="none" stroke="black" d="M99,-122.22C99,-122.22 99,-143.73 99,-143.73"/>
<polygon fill="black" stroke="black" points="95.5,-143.73 99,-153.73 102.5,-143.73 95.5,-143.73"/>
</g>
<!-- SendMailService  -->
<g id="node7" class="node">
<title>SendMailService </title>
<polygon fill="#fb8072" stroke="black" points="594.92,-266 479.08,-266 479.08,-230 594.92,-230 594.92,-266"/>
<text text-anchor="middle" x="537" y="-243.8" font-family="Times,serif" font-size="14.00">SendMailService </text>
</g>
<!-- SendMailModule -->
<g id="node8" class="node">
<title>SendMailModule</title>
<polygon fill="#8dd3c7" stroke="black" points="593.99,-190 590.99,-194 569.99,-194 566.99,-190 480.01,-190 480.01,-154 593.99,-154 593.99,-190"/>
<text text-anchor="middle" x="537" y="-167.8" font-family="Times,serif" font-size="14.00">SendMailModule</text>
</g>
<!-- SendMailModule&#45;&gt;UserModule -->
<g id="edge8" class="edge">
<title>SendMailModule&#45;&gt;UserModule</title>
<path fill="none" stroke="black" d="M479.6,-172C476.28,-172 474.25,-172 474.25,-172 474.25,-172 474.25,-248 474.25,-248 474.25,-248 432.17,-248 432.17,-248"/>
<polygon fill="black" stroke="black" points="432.17,-244.5 422.17,-248 432.17,-251.5 432.17,-244.5"/>
</g>
<!-- SendMailModule&#45;&gt;SendMailService  -->
<g id="edge5" class="edge">
<title>SendMailModule&#45;&gt;SendMailService </title>
<path fill="none" stroke="black" stroke-dasharray="5,2" d="M537,-190.01C537,-190.01 537,-219.85 537,-219.85"/>
<polygon fill="black" stroke="black" points="533.5,-219.85 537,-229.85 540.5,-219.85 533.5,-219.85"/>
</g>
<!-- SendMailService -->
<g id="node9" class="node">
<title>SendMailService</title>
<ellipse fill="#fdb462" stroke="black" cx="547" cy="-104" rx="77.58" ry="18"/>
<text text-anchor="middle" x="547" y="-99.8" font-family="Times,serif" font-size="14.00">SendMailService</text>
</g>
<!-- SendMailService&#45;&gt;SendMailModule -->
<g id="edge6" class="edge">
<title>SendMailService&#45;&gt;SendMailModule</title>
<path fill="none" stroke="black" d="M537,-121.87C537,-121.87 537,-143.54 537,-143.54"/>
<polygon fill="black" stroke="black" points="533.5,-143.54 537,-153.54 540.5,-143.54 533.5,-143.54"/>
</g>
<!-- UserService -->
<g id="node10" class="node">
<title>UserService</title>
<ellipse fill="#fdb462" stroke="black" cx="371" cy="-172" rx="58.44" ry="18"/>
<text text-anchor="middle" x="371" y="-167.8" font-family="Times,serif" font-size="14.00">UserService</text>
</g>
<!-- UserService&#45;&gt;UserModule -->
<g id="edge9" class="edge">
<title>UserService&#45;&gt;UserModule</title>
<path fill="none" stroke="black" d="M393.33,-188.87C393.33,-188.87 393.33,-219.85 393.33,-219.85"/>
<polygon fill="black" stroke="black" points="389.83,-219.85 393.33,-229.85 396.83,-219.85 389.83,-219.85"/>
</g>
</g>
</svg>
