<svg width="16" height="16" viewBox="0 0 16 16" fill="none" xmlns="http://www.w3.org/2000/svg">
<path d="M13.1133 3.34582C13.1092 3.3379 13.1024 3.3317 13.0942 3.32832C12.1411 2.89103 11.1353 2.57922 10.102 2.40067C10.0926 2.39892 10.0829 2.40018 10.0743 2.40427C10.0657 2.40835 10.0585 2.41505 10.0539 2.42342C9.91699 2.67199 9.79266 2.92731 9.68144 3.18842C8.5676 3.01934 7.43463 3.01934 6.32079 3.18842C6.20883 2.92665 6.08252 2.67126 5.94242 2.42342C5.93761 2.41523 5.93045 2.40869 5.92187 2.40463C5.91329 2.40057 5.90369 2.39919 5.89432 2.40067C4.86091 2.57884 3.85507 2.89068 2.90212 3.32834C2.89396 3.3318 2.88707 3.33771 2.88242 3.34524C0.976691 6.19119 0.45464 8.96717 0.71074 11.7088C0.711461 11.7155 0.713525 11.722 0.716811 11.7279C0.720096 11.7338 0.724536 11.739 0.729865 11.7431C1.83955 12.5648 3.08075 13.1919 4.40049 13.5979C4.40978 13.6007 4.41971 13.6005 4.42893 13.5975C4.43815 13.5945 4.44622 13.5887 4.45207 13.581C4.73552 13.1953 4.98668 12.7869 5.20299 12.3599C5.20596 12.3541 5.20766 12.3476 5.20797 12.3411C5.20828 12.3345 5.2072 12.328 5.20479 12.3218C5.20238 12.3157 5.19871 12.3102 5.19401 12.3056C5.1893 12.301 5.18368 12.2975 5.17752 12.2952C4.78146 12.1437 4.39802 11.961 4.03082 11.7489C4.02415 11.745 4.01854 11.7395 4.0145 11.7329C4.01046 11.7263 4.00811 11.7188 4.00765 11.7111C4.0072 11.7033 4.00865 11.6956 4.01188 11.6886C4.01512 11.6815 4.02003 11.6754 4.02619 11.6707C4.10324 11.613 4.18034 11.553 4.25392 11.4923C4.26045 11.4869 4.26836 11.4835 4.27675 11.4824C4.28515 11.4812 4.29369 11.4825 4.30142 11.4859C6.70714 12.5838 9.31167 12.5838 11.6889 11.4859C11.6967 11.4822 11.7053 11.4808 11.7138 11.4819C11.7223 11.4829 11.7304 11.4863 11.737 11.4917C11.8106 11.5524 11.8877 11.613 11.9653 11.6707C11.9715 11.6754 11.9765 11.6815 11.9798 11.6885C11.983 11.6955 11.9845 11.7032 11.9841 11.7109C11.9837 11.7186 11.9814 11.7261 11.9775 11.7328C11.9735 11.7394 11.9679 11.7449 11.9613 11.7489C11.5949 11.9628 11.2111 12.1453 10.814 12.2946C10.8078 12.297 10.8022 12.3006 10.7976 12.3053C10.7929 12.3099 10.7893 12.3155 10.7869 12.3217C10.7846 12.3278 10.7835 12.3344 10.7839 12.341C10.7842 12.3476 10.786 12.3541 10.789 12.3599C11.009 12.7845 11.2597 13.1924 11.5394 13.5803C11.545 13.5882 11.5531 13.5942 11.5623 13.5974C11.5716 13.6005 11.5816 13.6007 11.5909 13.5978C12.913 13.1932 14.1564 12.566 15.2675 11.7431C15.2729 11.7392 15.2774 11.7341 15.2807 11.7283C15.284 11.7225 15.286 11.716 15.2866 11.7093C15.5932 8.53977 14.7733 5.78654 13.1133 3.34582ZM5.56227 10.0394C4.83797 10.0394 4.24117 9.37474 4.24117 8.55844C4.24117 7.74214 4.82639 7.07742 5.56227 7.07742C6.30389 7.07742 6.89492 7.74792 6.88334 8.55839C6.88334 9.37474 6.29809 10.0394 5.56227 10.0394ZM10.4468 10.0394C9.72249 10.0394 9.12569 9.37474 9.12569 8.55844C9.12569 7.74214 9.71092 7.07742 10.4468 7.07742C11.1884 7.07742 11.7794 7.74792 11.7679 8.55839C11.7679 9.37474 11.1884 10.0394 10.4468 10.0394Z" fill="#020817"/>
</svg>
