<svg width="16" height="17" viewBox="0 0 16 17" fill="none" xmlns="http://www.w3.org/2000/svg">
<path d="M14.36 10.13H11.3333C10.9797 10.13 10.6406 10.2705 10.3905 10.5205C10.1405 10.7706 10 11.1097 10 11.4633V14.49" stroke="white" stroke-opacity="0.8" stroke-width="1.33333" stroke-linecap="round" stroke-linejoin="round"/>
<path d="M4.66667 2.35669V3.46336C4.66667 3.99379 4.87738 4.5025 5.25245 4.87757C5.62753 5.25264 6.13623 5.46336 6.66667 5.46336C7.02029 5.46336 7.35943 5.60383 7.60947 5.85388C7.85952 6.10393 8 6.44307 8 6.79669C8 7.53002 8.6 8.13002 9.33333 8.13002C9.68695 8.13002 10.0261 7.98955 10.2761 7.7395C10.5262 7.48945 10.6667 7.15031 10.6667 6.79669C10.6667 6.06336 11.2667 5.46336 12 5.46336H14.1133" stroke="white" stroke-opacity="0.8" stroke-width="1.33333" stroke-linecap="round" stroke-linejoin="round"/>
<path d="M7.33333 14.7633V12.13C7.33333 11.7764 7.19286 11.4372 6.94281 11.1872C6.69276 10.9371 6.35362 10.7967 6 10.7967C5.64638 10.7967 5.30724 10.6562 5.05719 10.4061C4.80714 10.1561 4.66667 9.81694 4.66667 9.46332V8.79665C4.66667 8.44303 4.52619 8.10389 4.27614 7.85384C4.02609 7.60379 3.68696 7.46332 3.33333 7.46332H1.36667" stroke="white" stroke-opacity="0.8" stroke-width="1.33333" stroke-linecap="round" stroke-linejoin="round"/>
<path d="M8 14.7967C11.6819 14.7967 14.6667 11.8119 14.6667 8.12998C14.6667 4.44809 11.6819 1.46332 8 1.46332C4.3181 1.46332 1.33333 4.44809 1.33333 8.12998C1.33333 11.8119 4.3181 14.7967 8 14.7967Z" stroke="white" stroke-opacity="0.8" stroke-width="1.33333" stroke-linecap="round" stroke-linejoin="round"/>
</svg>
