<svg width="16" height="16" viewBox="0 0 16 16" fill="none" xmlns="http://www.w3.org/2000/svg">
<path d="M10.6667 5.33325C11.7275 5.33325 12.7449 5.75468 13.4951 6.50482C14.2452 7.25497 14.6667 8.27239 14.6667 9.33325V13.9999H12V9.33325C12 8.97963 11.8595 8.64049 11.6095 8.39044C11.3594 8.14039 11.0203 7.99992 10.6667 7.99992C10.313 7.99992 9.9739 8.14039 9.72385 8.39044C9.4738 8.64049 9.33332 8.97963 9.33332 9.33325V13.9999H6.66666V9.33325C6.66666 8.27239 7.08808 7.25497 7.83823 6.50482C8.58838 5.75468 9.60579 5.33325 10.6667 5.33325Z" stroke="#020817" stroke-width="1.33333" stroke-linecap="round" stroke-linejoin="round"/>
<path d="M4.00001 6H1.33334V14H4.00001V6Z" stroke="#020817" stroke-width="1.33333" stroke-linecap="round" stroke-linejoin="round"/>
<path d="M2.66668 3.99992C3.40306 3.99992 4.00001 3.40297 4.00001 2.66659C4.00001 1.93021 3.40306 1.33325 2.66668 1.33325C1.9303 1.33325 1.33334 1.93021 1.33334 2.66659C1.33334 3.40297 1.9303 3.99992 2.66668 3.99992Z" stroke="#020817" stroke-width="1.33333" stroke-linecap="round" stroke-linejoin="round"/>
</svg>
