<svg width="85" height="18" viewBox="0 0 85 18" fill="none" xmlns="http://www.w3.org/2000/svg">
<path d="M14.4517 5.5625H12.4371C12.318 4.98304 12.1095 4.47399 11.8116 4.03533C11.5192 3.59668 11.1618 3.22843 10.7394 2.93058C10.3224 2.62731 9.85935 2.39986 9.3503 2.24822C8.84124 2.09659 8.31053 2.02077 7.75815 2.02077C6.75087 2.02077 5.83836 2.2753 5.02062 2.78436C4.2083 3.29341 3.56115 4.04346 3.07917 5.03449C2.60261 6.02552 2.36432 7.2413 2.36432 8.68182C2.36432 10.1223 2.60261 11.3381 3.07917 12.3291C3.56115 13.3202 4.2083 14.0702 5.02062 14.5793C5.83836 15.0883 6.75087 15.3429 7.75815 15.3429C8.31053 15.3429 8.84124 15.267 9.3503 15.1154C9.85935 14.9638 10.3224 14.739 10.7394 14.4412C11.1618 14.1379 11.5192 13.767 11.8116 13.3283C12.1095 12.8842 12.318 12.3752 12.4371 11.8011H14.4517C14.3 12.6514 14.0239 13.4122 13.6231 14.0838C13.2224 14.7553 12.7241 15.3266 12.1284 15.7978C11.5327 16.2635 10.8639 16.6182 10.122 16.8619C9.3855 17.1056 8.59755 17.2275 7.75815 17.2275C6.33929 17.2275 5.07748 16.8809 3.97272 16.1877C2.86796 15.4945 1.99878 14.5089 1.36517 13.2308C0.731556 11.9528 0.414751 10.4364 0.414751 8.68182C0.414751 6.9272 0.731556 5.41087 1.36517 4.13281C1.99878 2.85476 2.86796 1.86914 3.97272 1.17596C5.07748 0.482776 6.33929 0.136185 7.75815 0.136185C8.59755 0.136185 9.3855 0.258034 10.122 0.501731C10.8639 0.745428 11.5327 1.10285 12.1284 1.574C12.7241 2.03973 13.2224 2.60835 13.6231 3.27987C14.0239 3.94598 14.3 4.70685 14.4517 5.5625ZM21.1188 17.2924C20.3282 17.2924 19.6106 17.1435 18.9662 16.8457C18.3217 16.5424 17.81 16.1064 17.4309 15.5378C17.0518 14.9638 16.8622 14.2706 16.8622 13.4583C16.8622 12.7434 17.0031 12.164 17.2847 11.7199C17.5663 11.2704 17.9426 10.9184 18.4138 10.6639C18.8849 10.4094 19.4048 10.2198 19.9734 10.0953C20.5475 9.96529 21.1242 9.86239 21.7037 9.78658C22.4619 9.6891 23.0765 9.61599 23.5477 9.56725C24.0242 9.51309 24.3708 9.42374 24.5874 9.29918C24.8095 9.17463 24.9205 8.95801 24.9205 8.64932V8.58434C24.9205 7.78285 24.7012 7.16007 24.2625 6.716C23.8293 6.27193 23.1713 6.04989 22.2886 6.04989C21.3733 6.04989 20.6558 6.25027 20.1359 6.65101C19.616 7.05176 19.2505 7.47958 19.0393 7.93448L17.2197 7.28462C17.5446 6.52646 17.9778 5.93617 18.5194 5.51376C19.0664 5.08594 19.6621 4.78809 20.3065 4.62021C20.9564 4.44691 21.5954 4.36026 22.2236 4.36026C22.6243 4.36026 23.0846 4.409 23.6045 4.50648C24.1298 4.59854 24.6362 4.79079 25.1236 5.08323C25.6164 5.37567 26.0252 5.81703 26.3502 6.40732C26.6751 6.9976 26.8376 7.78826 26.8376 8.7793V17H24.9205V15.3104H24.823C24.693 15.5811 24.4764 15.8709 24.1732 16.1796C23.8699 16.4882 23.4664 16.7509 22.9628 16.9675C22.4592 17.1841 21.8445 17.2924 21.1188 17.2924ZM21.4113 15.5703C22.1694 15.5703 22.8084 15.4214 23.3283 15.1235C23.8536 14.8257 24.249 14.4412 24.5143 13.97C24.7851 13.4989 24.9205 13.0034 24.9205 12.4835V10.7289C24.8393 10.8263 24.6605 10.9157 24.3844 10.9969C24.1136 11.0728 23.7995 11.1404 23.4421 11.2C23.0901 11.2542 22.7462 11.3029 22.4104 11.3462C22.0801 11.3841 21.812 11.4166 21.6062 11.4437C21.108 11.5087 20.6423 11.6143 20.209 11.7605C19.7812 11.9013 19.4346 12.1152 19.1692 12.4023C18.9093 12.6839 18.7793 13.0684 18.7793 13.5558C18.7793 14.2219 19.0257 14.7255 19.5185 15.0667C20.0168 15.4024 20.6477 15.5703 21.4113 15.5703ZM32.2537 0.363636V17H30.3366V0.363636H32.2537ZM37.1622 17.13C36.7614 17.13 36.4176 16.9865 36.1305 16.6994C35.8435 16.4124 35.7 16.0685 35.7 15.6678C35.7 15.267 35.8435 14.9232 36.1305 14.6361C36.4176 14.3491 36.7614 14.2056 37.1622 14.2056C37.5629 14.2056 37.9068 14.3491 38.1938 14.6361C38.4809 14.9232 38.6244 15.267 38.6244 15.6678C38.6244 15.9331 38.5567 16.1768 38.4213 16.3989C38.2913 16.6209 38.1153 16.7996 37.8933 16.935C37.6767 17.065 37.433 17.13 37.1622 17.13ZM47.1334 17.2599C45.9637 17.2599 44.9564 16.9838 44.1116 16.4314C43.2668 15.879 42.6169 15.1181 42.162 14.1487C41.7071 13.1794 41.4797 12.0719 41.4797 10.8263C41.4797 9.55913 41.7125 8.44083 42.1783 7.47146C42.6494 6.49667 43.3047 5.7358 44.1441 5.18883C44.9889 4.63645 45.9745 4.36026 47.101 4.36026C47.9783 4.36026 48.7689 4.52273 49.4729 4.84766C50.1769 5.17259 50.7537 5.62749 51.2032 6.21236C51.6527 6.79723 51.9316 7.47958 52.0399 8.25941H50.1228C49.9766 7.69078 49.6516 7.18714 49.148 6.74849C48.6498 6.30442 47.9783 6.08239 47.1334 6.08239C46.3861 6.08239 45.7308 6.27734 45.1676 6.66726C44.6098 7.05176 44.1739 7.59601 43.8598 8.30003C43.5511 8.99862 43.3968 9.81907 43.3968 10.7614C43.3968 11.7253 43.5484 12.5647 43.8517 13.2796C44.1603 13.9944 44.5936 14.5495 45.1514 14.9448C45.7146 15.3402 46.3753 15.5378 47.1334 15.5378C47.6317 15.5378 48.0839 15.4512 48.49 15.2779C48.8962 15.1046 49.2401 14.8555 49.5217 14.5305C49.8033 14.2056 50.0037 13.8157 50.1228 13.3608H52.0399C51.9316 14.0973 51.6635 14.7607 51.2357 15.351C50.8133 15.9359 50.2528 16.4016 49.5542 16.7482C48.861 17.0894 48.0541 17.2599 47.1334 17.2599ZM59.9113 17.2599C58.7849 17.2599 57.7965 16.9919 56.9463 16.4557C56.1015 15.9196 55.4408 15.1696 54.9642 14.2056C54.4931 13.2417 54.2575 12.1152 54.2575 10.8263C54.2575 9.52663 54.4931 8.39209 54.9642 7.42272C55.4408 6.45335 56.1015 5.70059 56.9463 5.16446C57.7965 4.62833 58.7849 4.36026 59.9113 4.36026C61.0377 4.36026 62.0233 4.62833 62.8681 5.16446C63.7184 5.70059 64.3791 6.45335 64.8502 7.42272C65.3268 8.39209 65.565 9.52663 65.565 10.8263C65.565 12.1152 65.3268 13.2417 64.8502 14.2056C64.3791 15.1696 63.7184 15.9196 62.8681 16.4557C62.0233 16.9919 61.0377 17.2599 59.9113 17.2599ZM59.9113 15.5378C60.7669 15.5378 61.4709 15.3185 62.0233 14.8798C62.5757 14.4412 62.9846 13.8644 63.2499 13.1496C63.5153 12.4347 63.648 11.6603 63.648 10.8263C63.648 9.99236 63.5153 9.21524 63.2499 8.49498C62.9846 7.77472 62.5757 7.19256 62.0233 6.74849C61.4709 6.30442 60.7669 6.08239 59.9113 6.08239C59.0556 6.08239 58.3516 6.30442 57.7992 6.74849C57.2469 7.19256 56.838 7.77472 56.5726 8.49498C56.3073 9.21524 56.1746 9.99236 56.1746 10.8263C56.1746 11.6603 56.3073 12.4347 56.5726 13.1496C56.838 13.8644 57.2469 14.4412 57.7992 14.8798C58.3516 15.3185 59.0556 15.5378 59.9113 15.5378ZM68.4914 17V4.52273H70.3435V6.4723H70.506C70.7659 5.8062 71.1856 5.28902 71.7651 4.92076C72.3445 4.5471 73.0404 4.36026 73.8528 4.36026C74.6759 4.36026 75.361 4.5471 75.9079 4.92076C76.4603 5.28902 76.8908 5.8062 77.1995 6.4723H77.3295C77.649 5.82786 78.1283 5.3161 78.7673 4.93701C79.4063 4.55251 80.1726 4.36026 81.0662 4.36026C82.1818 4.36026 83.0943 4.70956 83.8037 5.40816C84.5131 6.10134 84.8679 7.18173 84.8679 8.64932V17H82.9508V8.64932C82.9508 7.72869 82.699 7.07071 82.1953 6.67538C81.6917 6.28005 81.0987 6.08239 80.4163 6.08239C79.539 6.08239 78.8594 6.34774 78.3774 6.87846C77.8954 7.40376 77.6544 8.06987 77.6544 8.87678V17H75.7049V8.45437C75.7049 7.74494 75.4747 7.17361 75.0144 6.74037C74.5541 6.30171 73.9611 6.08239 73.2354 6.08239C72.7372 6.08239 72.2714 6.21507 71.8382 6.48042C71.4104 6.74578 71.0638 7.11404 70.7984 7.58518C70.5385 8.05091 70.4085 8.58975 70.4085 9.2017V17H68.4914Z" fill="#020817"/>
</svg>
