<svg width="128" height="32" viewBox="0 0 128 32" fill="none" xmlns="http://www.w3.org/2000/svg">
<path d="M29.983 22.7965H25.3104V9.61545H30.0216C31.3474 9.61545 32.4888 9.87933 33.4456 10.4071C34.4024 10.9305 35.1383 11.6836 35.6531 12.6661C36.1723 13.6487 36.4319 14.8243 36.4319 16.1931C36.4319 17.5661 36.1723 18.7461 35.6531 19.7329C35.1383 20.7197 34.3981 21.4771 33.4327 22.0048C32.4716 22.5326 31.3217 22.7965 29.983 22.7965ZM28.0972 20.4087H29.8672C30.6909 20.4087 31.3839 20.2628 31.946 19.9711C32.5124 19.675 32.9372 19.218 33.2204 18.6002C33.5078 17.978 33.6515 17.1757 33.6515 16.1931C33.6515 15.2191 33.5078 14.4232 33.2204 13.8053C32.9372 13.1875 32.5145 12.7327 31.9524 12.4409C31.3904 12.1491 30.6974 12.0032 29.8736 12.0032H28.0972V20.4087ZM42.5338 22.9895C41.5341 22.9895 40.6695 22.7772 39.9401 22.3524C39.2149 21.9233 38.655 21.3269 38.2603 20.5631C37.8656 19.7951 37.6682 18.9048 37.6682 17.8922C37.6682 16.871 37.8656 15.9785 38.2603 15.2148C38.655 14.4468 39.2149 13.8503 39.9401 13.4256C40.6695 12.9965 41.5341 12.782 42.5338 12.782C43.5335 12.782 44.396 12.9965 45.1211 13.4256C45.8505 13.8503 46.4126 14.4468 46.8073 15.2148C47.2021 15.9785 47.3995 16.871 47.3995 17.8922C47.3995 18.9048 47.2021 19.7951 46.8073 20.5631C46.4126 21.3269 45.8505 21.9233 45.1211 22.3524C44.396 22.7772 43.5335 22.9895 42.5338 22.9895ZM42.5467 20.8656C43.0015 20.8656 43.3812 20.7369 43.6859 20.4795C43.9905 20.2178 44.2201 19.8616 44.3745 19.4111C44.5333 18.9606 44.6126 18.4479 44.6126 17.8729C44.6126 17.298 44.5333 16.7852 44.3745 16.3347C44.2201 15.8842 43.9905 15.528 43.6859 15.2663C43.3812 15.0045 43.0015 14.8737 42.5467 14.8737C42.0876 14.8737 41.7014 15.0045 41.3882 15.2663C41.0793 15.528 40.8454 15.8842 40.6867 16.3347C40.5322 16.7852 40.455 17.298 40.455 17.8729C40.455 18.4479 40.5322 18.9606 40.6867 19.4111C40.8454 19.8616 41.0793 20.2178 41.3882 20.4795C41.7014 20.7369 42.0876 20.8656 42.5467 20.8656ZM53.2713 22.9895C52.2587 22.9895 51.3877 22.775 50.6583 22.3459C49.9331 21.9126 49.3753 21.3119 48.9849 20.5438C48.5987 19.7758 48.4056 18.892 48.4056 17.8922C48.4056 16.8796 48.6009 15.9914 48.9913 15.2277C49.3861 14.4596 49.946 13.8611 50.6711 13.432C51.3962 12.9987 52.2587 12.782 53.2584 12.782C54.1208 12.782 54.876 12.9386 55.5239 13.2518C56.1718 13.5651 56.6847 14.0048 57.0619 14.5712C57.4397 15.1376 57.6476 15.8026 57.6866 16.5664H55.0991C55.0262 16.073 54.8331 15.676 54.5199 15.3757C54.2109 15.071 53.8055 14.9187 53.3034 14.9187C52.8787 14.9187 52.5075 15.0346 52.19 15.2663C51.8768 15.4937 51.6322 15.8262 51.4563 16.2639C51.2804 16.7015 51.1925 17.2314 51.1925 17.8536C51.1925 18.4843 51.2783 19.0206 51.4499 19.4626C51.6258 19.9045 51.8725 20.2413 52.19 20.473C52.5075 20.7047 52.8787 20.8206 53.3034 20.8206C53.6167 20.8206 53.8977 20.7562 54.1466 20.6275C54.3997 20.4988 54.6079 20.3121 54.7709 20.0676C54.9382 19.8187 55.0476 19.5205 55.0991 19.173H57.6866C57.6436 19.9281 57.4374 20.5932 57.0687 21.1681C56.704 21.7388 56.1997 22.1851 55.5561 22.5068C54.9124 22.8286 54.1508 22.9895 53.2713 22.9895ZM65.404 18.5873V12.9107H68.1453V22.7965H65.5133V21.0008H65.4103C65.1871 21.5801 64.8161 22.0456 64.2968 22.3975C63.7819 22.7493 63.1533 22.9252 62.4108 22.9252C61.7504 22.9252 61.1687 22.775 60.6669 22.4747C60.1651 22.1743 59.772 21.7474 59.4888 21.1939C59.2102 20.6404 59.0686 19.9775 59.0641 19.2052V12.9107H61.8059V18.716C61.8104 19.2996 61.9667 19.7608 62.276 20.0997C62.5846 20.4387 62.9986 20.6082 63.518 20.6082C63.8482 20.6082 64.1574 20.5331 64.4446 20.3829C64.7323 20.2285 64.964 20.0011 65.1401 19.7007C65.3202 19.4004 65.408 19.0292 65.404 18.5873ZM69.9611 22.7965V12.9107H72.5743V14.6549H72.6898C72.896 14.0756 73.2392 13.6187 73.7195 13.284C74.2003 12.9493 74.7752 12.782 75.4447 12.782C76.1226 12.782 76.6997 12.9515 77.1761 13.2904C77.6518 13.6251 77.9696 14.0799 78.1281 14.6549H78.2312C78.4328 14.0885 78.7976 13.6359 79.3254 13.2969C79.8573 12.9536 80.4859 12.782 81.2115 12.782C82.1335 12.782 82.8823 13.0759 83.4571 13.6637C84.0365 14.2473 84.3265 15.0753 84.3265 16.1481V22.7965H81.5909V16.6887C81.5909 16.1394 81.4448 15.7275 81.1531 15.4529C80.8614 15.1783 80.4967 15.041 80.0589 15.041C79.5616 15.041 79.1731 15.1998 78.8944 15.5173C78.6152 15.8305 78.4759 16.2446 78.4759 16.7595V22.7965H75.8179V16.6307C75.8179 16.1459 75.6786 15.7597 75.3994 15.4723C75.1247 15.1848 74.7622 15.041 74.3119 15.041C74.0072 15.041 73.7325 15.1183 73.4879 15.2727C73.2477 15.4229 73.0568 15.6353 72.9152 15.9099C72.7737 16.1802 72.7029 16.4977 72.7029 16.8624V22.7965H69.9611ZM90.6195 22.9895C89.6028 22.9895 88.7272 22.7836 87.9938 22.3717C87.2643 21.9555 86.7024 21.3677 86.3077 20.6082C85.9129 19.8445 85.7153 18.9413 85.7153 17.8987C85.7153 16.8817 85.9129 15.9893 86.3077 15.2212C86.7024 14.4532 87.258 13.8546 87.9745 13.4256C88.6955 12.9965 89.5405 12.782 90.5102 12.782C91.1626 12.782 91.7698 12.8871 92.3316 13.0973C92.898 13.3033 93.3913 13.6144 93.8121 14.0306C94.2369 14.4468 94.5671 14.9702 94.8032 15.601C95.0389 16.2274 95.1572 16.9611 95.1572 17.8021V18.5551H86.8095V16.856H92.5763C92.5763 16.4613 92.4902 16.1116 92.3186 15.8069C92.147 15.5023 91.9091 15.2642 91.6044 15.0925C91.3042 14.9166 90.9542 14.8286 90.5555 14.8286C90.1392 14.8286 89.7699 14.9252 89.4482 15.1183C89.1305 15.307 88.8818 15.5624 88.7017 15.8842C88.5216 16.2017 88.4293 16.5557 88.4248 16.9461V18.5615C88.4248 19.0507 88.5148 19.4733 88.6955 19.8295C88.8796 20.1856 89.1395 20.4602 89.4743 20.6533C89.8084 20.8463 90.2054 20.9429 90.6648 20.9429C90.9695 20.9429 91.2481 20.9 91.5013 20.8142C91.7545 20.7284 91.9714 20.5996 92.1515 20.428C92.3316 20.2564 92.4687 20.0461 92.5633 19.7972L95.0989 19.9646C94.9703 20.5739 94.7064 21.106 94.3077 21.5608C93.9129 22.0112 93.402 22.3631 92.7756 22.6162C92.1538 22.8651 91.435 22.9895 90.6195 22.9895ZM99.3104 17.0813V22.7965H96.5686V12.9107H99.1819V14.6549H99.2974C99.5166 14.0799 99.883 13.6251 100.398 13.2904C100.913 12.9515 101.537 12.782 102.271 12.782C102.957 12.782 103.556 12.9321 104.067 13.2325C104.577 13.5328 104.974 13.9619 105.257 14.5197C105.541 15.0732 105.682 15.734 105.682 16.502V22.7965H102.94V16.9912C102.945 16.3862 102.79 15.9142 102.477 15.5752C102.164 15.2319 101.732 15.0603 101.183 15.0603C100.814 15.0603 100.488 15.1397 100.205 15.2985C99.9261 15.4572 99.7075 15.689 99.5483 15.9935C99.3943 16.2939 99.315 16.6565 99.3104 17.0813ZM115.69 15.7297L113.181 15.8842C113.138 15.6696 113.046 15.4766 112.904 15.3049C112.762 15.129 112.575 14.9895 112.344 14.8866C112.117 14.7793 111.844 14.7257 111.527 14.7257C111.102 14.7257 110.744 14.8158 110.452 14.996C110.16 15.1719 110.014 15.4079 110.014 15.704C110.014 15.9399 110.108 16.1394 110.297 16.3025C110.486 16.4656 110.81 16.5964 111.269 16.6951L113.059 17.0555C114.02 17.2529 114.736 17.5704 115.208 18.0081C115.68 18.4457 115.916 19.0206 115.916 19.7329C115.916 20.3808 115.725 20.9493 115.343 21.4385C114.966 21.9276 114.446 22.3095 113.786 22.5841C113.129 22.8544 112.372 22.9895 111.513 22.9895C110.205 22.9895 109.162 22.7171 108.386 22.1722C107.613 21.6229 107.161 20.8763 107.028 19.9324L109.724 19.7908C109.806 20.1898 110.004 20.4945 110.317 20.7047C110.63 20.9107 111.031 21.0137 111.52 21.0137C112.001 21.0137 112.387 20.9214 112.679 20.7369C112.975 20.5481 113.125 20.3057 113.129 20.0096C113.125 19.7608 113.019 19.557 112.814 19.3982C112.608 19.2352 112.291 19.1107 111.861 19.0249L110.149 18.6838C109.184 18.4907 108.465 18.1561 107.993 17.6798C107.526 17.2035 107.292 16.5964 107.292 15.8584C107.292 15.2234 107.463 14.6763 107.807 14.2172C108.154 13.7581 108.641 13.4042 109.267 13.1553C109.898 12.9064 110.636 12.782 111.482 12.782C112.73 12.782 113.713 13.0459 114.429 13.5736C115.15 14.1014 115.57 14.8201 115.69 15.7297ZM121.731 22.9895C120.732 22.9895 119.867 22.7772 119.138 22.3524C118.412 21.9233 117.853 21.3269 117.458 20.5631C117.063 19.7951 116.866 18.9048 116.866 17.8922C116.866 16.871 117.063 15.9785 117.458 15.2148C117.853 14.4468 118.412 13.8503 119.138 13.4256C119.867 12.9965 120.732 12.782 121.731 12.782C122.731 12.782 123.594 12.9965 124.319 13.4256C125.048 13.8503 125.61 14.4468 126.005 15.2148C126.4 15.9785 126.597 16.871 126.597 17.8922C126.597 18.9048 126.4 19.7951 126.005 20.5631C125.61 21.3269 125.048 21.9233 124.319 22.3524C123.594 22.7772 122.731 22.9895 121.731 22.9895ZM121.744 20.8656C122.199 20.8656 122.579 20.7369 122.883 20.4795C123.188 20.2178 123.417 19.8616 123.572 19.4111C123.731 18.9606 123.811 18.4479 123.811 17.8729C123.811 17.298 123.731 16.7852 123.572 16.3347C123.417 15.8842 123.188 15.528 122.883 15.2663C122.579 15.0045 122.199 14.8737 121.744 14.8737C121.285 14.8737 120.899 15.0045 120.586 15.2663C120.277 15.528 120.043 15.8842 119.884 16.3347C119.73 16.7852 119.653 17.298 119.653 17.8729C119.653 18.4479 119.73 18.9606 119.884 19.4111C120.043 19.8616 120.277 20.2178 120.586 20.4795C120.899 20.7369 121.285 20.8656 121.744 20.8656Z" fill="#020817"/>
<path d="M7.50804 8.83186C7.27572 9.04293 7.0187 9.29085 6.72498 9.5807C6.53898 9.7267 6.30966 9.80911 6.07127 9.81369L5.08717 9.83262L5.37388 9.5459C7.11243 7.80733 7.98176 6.93805 9.06194 6.93805C10.1421 6.93805 11.0114 7.80733 12.75 9.5459L13.0362 9.83209L12.0859 9.81419C11.818 9.80914 11.5612 9.70583 11.3645 9.5239L10.7946 8.99692C10.7406 8.94624 10.6878 8.89742 10.6362 8.8504L10.6055 8.82195C10.4108 8.64548 10.233 8.49499 10.0659 8.3675C9.58323 7.99923 9.30225 7.91599 9.06194 7.91599C8.82163 7.91599 8.54065 7.99923 8.05799 8.3675C7.88887 8.49655 7.70928 8.64914 7.51184 8.82841L7.50804 8.83186Z" fill="#020817"/>
<path d="M16.2115 14.4257C16.1645 14.3742 16.1158 14.3215 16.0652 14.2675L15.538 13.6974C15.3562 13.5008 15.2528 13.2443 15.2477 12.9765L15.2293 12.0252L15.516 12.3119C17.2546 14.0505 18.1239 14.9198 18.1239 16C18.1239 17.0802 17.2546 17.9495 15.516 19.688L15.2293 19.9748L15.2477 19.0235C15.2528 18.7557 15.3562 18.4992 15.538 18.3026L16.0652 17.7326C16.1158 17.6786 16.1645 17.6258 16.2115 17.5743L16.24 17.5435C16.4165 17.3489 16.5669 17.171 16.6944 17.004C17.0627 16.5213 17.1459 16.2403 17.1459 16C17.1459 15.7597 17.0627 15.4787 16.6944 14.9961C16.5669 14.829 16.4165 14.6516 16.24 14.457L16.2115 14.4257Z" fill="#020817"/>
<path d="M10.6254 23.1595C10.6835 23.1065 10.7432 23.0513 10.8047 22.9937L11.3646 22.4759C11.5613 22.2941 11.8178 22.1908 12.0857 22.1857L13.0365 22.1676L12.75 22.4541C11.0114 24.1927 10.1421 25.0619 9.06194 25.0619C7.98176 25.0619 7.11243 24.1927 5.37389 22.4541L5.08717 22.1674L6.04052 22.1857C6.30705 22.1908 6.5626 22.2932 6.7589 22.4736L7.14336 22.8269C7.49434 23.1632 7.78936 23.4275 8.05799 23.6325C8.54065 24.0008 8.82163 24.084 9.06194 24.084C9.30225 24.084 9.58323 24.0008 10.0659 23.6325C10.235 23.5035 10.4146 23.3508 10.612 23.1716L10.6254 23.1595Z" fill="#020817"/>
<path d="M1.89498 17.5552C1.95321 17.6192 2.01423 17.6852 2.07817 17.7533L2.5861 18.3025C2.76796 18.4992 2.87126 18.7558 2.87638 19.0236L2.89457 19.9748L2.60785 19.688C0.869284 17.9495 0 17.0802 0 16C0 14.9198 0.869284 14.0505 2.60785 12.3119L2.8943 12.0255L2.87631 12.9762C2.87123 13.2441 2.76789 13.5008 2.58593 13.6975L2.06225 14.2637C2.01021 14.3192 1.96013 14.3733 1.91193 14.4262L1.8839 14.4565C1.70743 14.6511 1.55694 14.829 1.42945 14.996C1.06118 15.4787 0.977943 15.7597 0.977943 16C0.977943 16.2403 1.06118 16.5213 1.42945 17.0039C1.55853 17.1731 1.71117 17.3528 1.89049 17.5503L1.89498 17.5552Z" fill="#020817"/>
<path d="M1.89049 14.4493L2.58593 13.6975C2.74719 13.5232 2.8467 13.3018 2.87079 13.0671C2.87365 12.6806 2.87998 12.3434 2.89393 12.0454L2.8947 12.0046L2.89596 12.0034C2.9088 11.7459 2.92761 11.518 2.95519 11.3129C3.03609 10.7112 3.1759 10.4537 3.34582 10.2838C3.51574 10.1138 3.77327 9.97403 4.37498 9.89313C4.5839 9.86504 4.81642 9.84604 5.07977 9.8332L5.08021 9.83275L5.09458 9.83248C5.40324 9.81775 5.75405 9.81132 6.15856 9.80852C6.40249 9.78423 6.63221 9.67843 6.80971 9.50685L7.51156 8.82843H7.10621C4.64748 8.82843 3.41813 8.82843 2.65431 9.59225C1.89049 10.3561 1.89049 11.5854 1.89049 14.0442V14.4493Z" fill="#020817"/>
<path d="M1.89049 17.5503V17.9559C1.89049 20.4146 1.89049 21.6439 2.65431 22.4078C3.41813 23.1716 4.64748 23.1716 7.10621 23.1716H11.018C13.4766 23.1716 14.706 23.1716 15.4698 22.4078C16.2337 21.6439 16.2337 20.4146 16.2337 17.9559V17.5504L15.538 18.3026C15.3772 18.4766 15.2778 18.6973 15.2534 18.9313C15.2505 19.3262 15.244 19.6697 15.2294 19.9724L15.2292 19.9817C15.2164 20.2452 15.1971 20.4781 15.169 20.6871C15.0881 21.2888 14.9482 21.5464 14.7783 21.7163C14.6084 21.8862 14.3509 22.026 13.7492 22.1069C13.544 22.1345 13.316 22.1533 13.0584 22.1661L13.0574 22.1672L13.0216 22.1679C12.7222 22.1821 12.3833 22.1884 11.9943 22.1913C11.76 22.2155 11.5387 22.3149 11.3646 22.4759L10.6123 23.1716H7.51842L6.75891 22.4736C6.58526 22.314 6.36528 22.2155 6.13228 22.1913C5.73842 22.1884 5.39581 22.1819 5.09363 22.1675L5.08021 22.1672L5.07981 22.1668C4.81644 22.154 4.5839 22.135 4.37498 22.1069C3.77327 22.026 3.51574 21.8862 3.34582 21.7163C3.1759 21.5464 3.03609 21.2888 2.95519 20.6871C2.9271 20.4782 2.9081 20.2456 2.89525 19.9823L2.8947 19.9817L2.89435 19.9637C2.8801 19.6632 2.87367 19.3229 2.87078 18.932C2.84656 18.6978 2.74712 18.4767 2.58611 18.3025L1.89049 17.5503Z" fill="#020817"/>
<path d="M15.2533 13.0686C15.2778 13.3027 15.3771 13.5234 15.538 13.6974L16.2337 14.4496V14.0442C16.2337 11.5854 16.2337 10.3561 15.4698 9.59225C14.706 8.82843 13.4766 8.82843 11.018 8.82843H10.6124L11.3645 9.52391C11.539 9.68525 11.7606 9.78476 11.9954 9.80873C12.3796 9.81159 12.715 9.81786 13.0117 9.83164L13.071 9.83275L13.0728 9.83461C13.3245 9.84743 13.5478 9.86606 13.7492 9.89314C14.3509 9.97403 14.6084 10.1138 14.7783 10.2838C14.9482 10.4537 15.0881 10.7112 15.169 11.3129C15.1971 11.5219 15.2161 11.7545 15.2289 12.018L15.2294 12.0276C15.2439 12.3304 15.2505 12.6738 15.2533 13.0686Z" fill="#020817"/>
<path d="M8.32005 11.6672L7.66045 12.2271C7.54276 12.327 7.39528 12.3851 7.24106 12.3922L6.13708 12.4437L6.71274 11.868C7.82385 10.7569 8.37946 10.2013 9.06981 10.2013C9.76016 10.2013 10.3158 10.7569 11.4269 11.868L11.999 12.4402L10.8796 12.3917C10.7227 12.3849 10.5726 12.3254 10.4536 12.2227L9.95568 11.7932C9.78089 11.6287 9.63267 11.4986 9.49742 11.3954C9.2203 11.184 9.11524 11.1792 9.06981 11.1792C9.02439 11.1792 8.91933 11.184 8.6422 11.3954C8.63779 11.3988 8.63337 11.4022 8.62895 11.4056L8.62827 11.4056L8.62176 11.4112C8.52893 11.4832 8.42981 11.5677 8.32005 11.6672Z" fill="#020817"/>
<path d="M13.6306 15.5181C13.4421 15.2799 13.1717 14.9986 12.7802 14.6048C12.7161 14.5025 12.6792 14.3847 12.6743 14.2625L12.6259 13.067L13.1947 13.6359C14.3059 14.747 14.8614 15.3026 14.8614 15.9929C14.8614 16.6833 14.3059 17.2389 13.1947 18.35L12.6228 18.9219L12.6779 17.7794C12.6856 17.6206 12.7472 17.4692 12.8525 17.3502L13.2708 16.8775C13.4028 16.7372 13.5126 16.614 13.6041 16.5008L13.6557 16.4427V16.4357C13.6596 16.4307 13.6635 16.4256 13.6673 16.4205C13.8788 16.1435 13.8836 16.0383 13.8836 15.9929C13.8836 15.9476 13.8788 15.8424 13.6673 15.5654C13.6635 15.5603 13.6596 15.5552 13.6557 15.5501V15.5444L13.6306 15.5181Z" fill="#020817"/>
<path d="M4.48643 15.549L5.24902 14.7197C5.35702 14.6022 5.42155 14.4514 5.43187 14.2922L5.47406 13.6412C5.48046 13.4351 5.49105 13.261 5.50854 13.1092L5.51154 13.063L5.51456 13.06C5.51524 13.0547 5.51592 13.0495 5.51662 13.0444C5.56306 12.699 5.63396 12.6212 5.66605 12.5891C5.69816 12.557 5.77586 12.4861 6.12135 12.4397C6.23225 12.4248 6.35526 12.4141 6.49482 12.4065L7.43143 12.3141C7.58168 12.2992 7.72311 12.2361 7.83446 12.1342L8.62602 11.4095H7.81984C6.24845 11.4095 5.46277 11.4095 4.97461 11.8977C4.55872 12.3135 4.49714 12.9454 4.48802 14.095C4.48643 14.2948 4.48643 14.5103 4.48643 14.7429V15.547V15.549Z" fill="#020817"/>
<path d="M4.48643 16.4369V16.4398V17.2429C4.48643 17.4756 4.48643 17.6911 4.48802 17.8909C4.49714 19.0405 4.55872 19.6723 4.97461 20.0882C5.39049 20.5041 6.02235 20.5657 7.17197 20.5748C7.37179 20.5764 7.58718 20.5764 7.81984 20.5764H8.62285H9.51567H10.3199C10.5525 20.5764 10.7679 20.5764 10.9677 20.5748C12.1174 20.5657 12.7493 20.5041 13.1652 20.0882C13.6534 19.6001 13.6534 18.8143 13.6534 17.2429V16.4344L12.8407 17.3157C12.7594 17.4038 12.7028 17.5107 12.6751 17.6256C12.6735 18.1968 12.6657 18.594 12.6285 18.8998L12.6281 18.9161L12.6262 18.9179C12.6252 18.9259 12.6242 18.9337 12.6232 18.9415C12.5767 19.2869 12.5058 19.3646 12.4737 19.3967C12.4416 19.4289 12.3639 19.4998 12.0185 19.5462C12.0107 19.5473 12.0028 19.5483 11.9949 19.5493L11.9929 19.5512L11.9656 19.5529C11.7917 19.5735 11.5883 19.5848 11.3406 19.5911L10.7833 19.625C10.6247 19.6347 10.4741 19.6982 10.3564 19.8051L9.50695 20.5764H8.61905L7.76989 19.7825C7.65809 19.678 7.51542 19.6134 7.36397 19.5979C7.29839 19.5976 7.23518 19.5973 7.17418 19.5968C6.71644 19.5931 6.3846 19.5816 6.12135 19.5462C5.77586 19.4998 5.69816 19.4289 5.66605 19.3967C5.63396 19.3646 5.56306 19.2869 5.51662 18.9415C5.51592 18.9363 5.51524 18.9311 5.51456 18.9259L5.51154 18.9229L5.51126 18.9163L5.51013 18.8902C5.47915 18.63 5.46908 18.3039 5.46584 17.8616L5.46096 17.7484C5.45965 17.718 5.45637 17.6879 5.45119 17.6582C5.42848 17.5283 5.3693 17.4067 5.27967 17.3083L4.48643 16.4369Z" fill="#020817"/>
<path d="M12.6669 13.682L12.7127 14.3031C12.7243 14.4598 12.7883 14.608 12.8945 14.7238L13.6534 15.5514V14.7429C13.6534 13.1715 13.6534 12.3858 13.1652 11.8977C12.677 11.4095 11.8913 11.4095 10.3199 11.4095H9.50684L10.3212 12.1514C10.4353 12.2553 10.5807 12.3185 10.7346 12.3311L11.679 12.4084C11.7692 12.4138 11.8525 12.4205 11.9299 12.4289L11.9998 12.4347L12.0027 12.4376C12.008 12.4383 12.0133 12.439 12.0185 12.4397C12.3639 12.4861 12.4416 12.557 12.4737 12.5891C12.5058 12.6212 12.5767 12.699 12.6232 13.0444C12.6469 13.2205 12.6598 13.4274 12.6669 13.682Z" fill="#020817"/>
<path d="M5.5143 18.9194L5.51125 18.9164L5.51153 18.9229L5.51455 18.9259L5.5143 18.9194Z" fill="#020817"/>
<path d="M6.14412 19.5492L7.17418 19.5968C6.72958 19.5932 6.40369 19.5823 6.14412 19.5492Z" fill="#020817"/>
<path d="M5.47057 17.795C5.46863 17.7486 5.46208 17.7028 5.45119 17.6582C5.45637 17.6879 5.45965 17.718 5.46096 17.7484L5.46584 17.8617C5.46908 18.3039 5.47915 18.6301 5.51014 18.8903L5.51126 18.9164L5.51431 18.9194L5.47057 17.795Z" fill="#020817"/>
<path d="M3.27821 15.9929C3.27821 16.5811 3.68148 17.0715 4.48802 17.8909C4.48643 17.6911 4.48643 17.4756 4.48643 17.243V16.4398L4.48472 16.4378L4.48473 16.4367C4.48055 16.4313 4.47642 16.4259 4.47232 16.4205C4.26091 16.1435 4.25609 16.0383 4.25609 15.9929C4.25609 15.9475 4.26091 15.8424 4.47232 15.5654C4.47697 15.5592 4.48167 15.5531 4.48643 15.547V14.7429C4.48643 14.5103 4.48643 14.2948 4.48802 14.095C3.68148 14.9144 3.27821 15.4047 3.27821 15.9929Z" fill="#020817"/>
<path d="M8.64221 20.5904C8.6383 20.5874 8.63439 20.5844 8.63043 20.5814H8.62828L8.62284 20.5764H7.81984C7.58717 20.5764 7.37178 20.5764 7.17197 20.5748C7.99134 21.3813 8.48164 21.7846 9.06982 21.7846C9.658 21.7846 10.1483 21.3813 10.9677 20.5748C10.7679 20.5764 10.5525 20.5764 10.3199 20.5764H9.51567C9.50955 20.5811 9.50349 20.5858 9.49743 20.5904C9.22031 20.8019 9.11524 20.8067 9.06982 20.8067C9.0244 20.8067 8.91934 20.8019 8.64221 20.5904Z" fill="#020817"/>
</svg>
