<svg width="96" height="32" viewBox="0 0 96 32" fill="none" xmlns="http://www.w3.org/2000/svg">
<path d="M26.4 8.60001V28H23.7333V17.3333H13.2667V20H21.0667V21.3333C21.0667 24.7333 21.0667 28.1333 21.0667 31.4667C21.0667 31.6667 21.0667 31.8667 21.1333 32C24.0667 31.5333 26.8 30.2667 29 28.4V14.7333C28.9333 12.6667 28.5333 10.4667 26.4 8.60001Z" fill="#020817"/>
<path d="M21.1333 9.4H23.8V3.6C25.4 3.93333 31.4 7.86667 31.6667 14.0667V25.5333C33.6 22.8667 34.8 19.5333 34.8 16C34.8 7.93333 28.9333 1.26667 21.2 0C21.2 0.133333 21.2 0.333333 21.1333 0.533333V9.4Z" fill="#020817"/>
<path d="M10.6 23.4V4.06667H13.2667V14.6667H23.7333V12H15.9333V10.6667C15.9333 7.26667 15.9333 3.86667 15.9333 0.533333C15.9333 0.333333 15.9333 0.133333 15.8667 0C12.9333 0.466667 10.2 1.73333 8 3.6V17.2C8.06667 19.2667 8.46667 21.5333 10.6 23.4Z" fill="#020817"/>
<path d="M15.9333 22.6H13.2667V28.4C11.7333 28.0667 5.66668 24.1333 5.46668 17.9333V6.46667C3.46668 9.13334 2.33334 12.4 2.33334 16C2.33334 24.0667 8.20001 30.7333 15.9333 32C15.9333 31.8667 15.9333 31.6667 16 31.4667L15.9333 22.6Z" fill="#020817"/>
<path d="M43.8667 23.0667V9.20001H46V14.8H47.8667V9.20001H50V23.0667H47.8667V16.6H46V23.0667H43.8667Z" fill="#020817"/>
<path d="M58.8 18.8667L57.8667 11.9333L57 18.8667H58.8ZM54.4667 23.0667L56.4667 9.20001H59.2667L61.4 23.0667H59.4L59 20.6H56.7333L56.4667 23.0667H54.4667Z" fill="#020817"/>
<path d="M65.7333 23.0667V9.20001H67.4L70.3333 17.5333L70.2 13.7333V9.20001H72.0667V23.0667H70.6L67.6 14.4667L67.7333 18.1333V23.1333H65.7333V23.0667Z" fill="#020817"/>
<path d="M76.8667 23.0667V9.20001H79V15.6L81.1333 9.20001H83.3333L81 16.0667L83.4667 23.0667H81.2667L79.0667 16.6V23.0667H76.8667Z" fill="#020817"/>
<path d="M89.6 20.9333C89.7333 21.2667 90 21.4 90.3333 21.4C90.6667 21.4 91 21.2667 91.0667 20.9333C91.2 20.6 91.2667 20.0667 91.2667 19.2667V12.8C91.2667 12.1333 91.2 11.6667 91.0667 11.3333C90.9333 11 90.7333 10.8667 90.3333 10.8667C90 10.8667 89.7333 11 89.6 11.3333C89.4667 11.6667 89.4 12.1333 89.4 12.7333V19.2C89.4667 20 89.5333 20.6 89.6 20.9333ZM92.7333 22.2C92.2667 22.8667 91.4667 23.2 90.4 23.2C89.3333 23.2 88.5333 22.8667 88.0667 22.2C87.6 21.5333 87.3333 20.5333 87.3333 19.2V12.8667C87.3333 10.3333 88.4 9.06668 90.4667 9.06668C91.5333 9.06668 92.3333 9.40001 92.8 10.0667C93.2667 10.7333 93.5333 11.6667 93.5333 12.9333V19.2667C93.4667 20.5333 93.2 21.5333 92.7333 22.2Z" fill="#020817"/>
</svg>
