<svg width="96" height="32" viewBox="0 0 96 32" fill="none" xmlns="http://www.w3.org/2000/svg">
<path fill-rule="evenodd" clip-rule="evenodd" d="M13.5031 1.88235C11.44 1.96863 9.42131 2.50849 7.59059 3.46353L13.5031 13.7035V1.88235ZM13.5031 18.2993L7.59247 28.5365C9.42265 29.4912 11.4407 30.031 13.5031 30.1176V18.2993ZM14.7313 30.1176V18.2889L20.6466 28.5355C18.8151 29.4913 16.7954 30.0315 14.7313 30.1176ZM14.7313 13.7129V1.88235C16.8584 1.97365 18.8649 2.53459 20.6485 3.46541L14.7313 13.7139V13.7129ZM2.19859 23.5934L12.4424 17.6791L6.528 27.9228C4.78731 26.8116 3.30986 25.3341 2.19859 23.5934ZM26.0386 8.41035L15.7986 14.3228L21.7111 4.08283C23.4508 5.19379 24.9276 6.67057 26.0386 8.41035ZM2.19765 8.40847C3.30894 6.6678 4.78639 5.19036 6.52706 4.07906L12.4414 14.3228L2.19765 8.40847ZM1.58212 9.472C0.62622 11.3038 0.0860211 13.3238 0 15.3882H11.8287L1.58212 9.472ZM1.58212 22.5289C0.627109 20.6982 0.0872503 18.6795 0.000941176 16.6165H11.824L1.58306 22.5299L1.58212 22.5289ZM16.4094 15.3882H28.2353C28.1495 13.3242 27.6096 11.3045 26.6541 9.47294L16.4094 15.3882ZM26.6532 22.528L16.4151 16.6174H28.2353C28.1487 18.6798 27.6079 20.6978 26.6532 22.528ZM15.7986 17.68L21.7101 27.92C23.45 26.8088 24.9268 25.3317 26.0376 23.5915L15.7986 17.68Z" fill="#020817"/>
<path d="M86.9082 13.0937H88.4489L91.2678 20.8329L93.9821 13.0937H95.5059L91.7412 23.5473C91.3911 24.5449 90.7247 25.0005 89.6744 25.0005H88.5713V23.7224H89.5351C90.0075 23.7224 90.288 23.5473 90.4631 23.0569L90.7953 22.1986H90.3059L86.9082 13.0937ZM77.8767 15.8249C78.2438 14.0217 79.68 12.8828 81.6584 12.8828C84.0574 12.8828 85.3882 14.2842 85.3882 16.7699V20.5007C85.3882 20.9205 85.5633 21.0955 85.9661 21.0955H86.3332V22.3737H85.7214C84.7755 22.3737 83.952 22.0584 83.9699 20.9205C83.5671 21.7958 82.5167 22.5835 81.0456 22.5835C79.2066 22.5835 77.7186 21.6038 77.7186 19.9577C77.7186 18.0489 79.1718 17.5577 81.2028 17.1558L83.952 16.6306C83.9351 15.0193 83.1821 14.2494 81.6584 14.2494C80.4678 14.2494 79.68 14.8612 79.3995 15.9473L77.8767 15.8249ZM79.2245 19.9567C79.2245 20.7097 79.8729 21.3233 81.2386 21.3054C82.7793 21.3054 83.9868 20.2202 83.9868 18.0659V17.9087L81.7638 18.2946C80.3802 18.5393 79.2245 18.6428 79.2245 19.9567ZM75.4155 9.94165V22.3746H74.1195L74.0668 21.008C73.5416 21.9887 72.544 22.5845 71.1078 22.5845C68.4282 22.5845 67.1849 20.3078 67.1849 17.7336C67.1849 15.1595 68.4282 12.8838 71.1078 12.8838C72.4734 12.8838 73.4541 13.4089 73.9793 14.3539V9.94165H75.4155ZM68.6908 17.7346C68.6908 19.5369 69.4616 21.2179 71.4052 21.2179C73.3139 21.2179 74.1017 19.5021 74.1017 17.7336C74.1017 15.8955 73.3139 14.1967 71.4052 14.1967C69.4616 14.1967 68.6908 15.8776 68.6908 17.7336V17.7346ZM64.8809 9.94165V22.3746H63.5859L63.5332 21.008C63.008 21.9887 62.0094 22.5845 60.5741 22.5845C57.8946 22.5845 56.6513 20.3078 56.6513 17.7336C56.6513 15.1595 57.8946 12.8838 60.5741 12.8838C61.9388 12.8838 62.9205 13.4089 63.4447 14.3539V9.94165H64.8809ZM58.1572 17.7346C58.1572 19.5369 58.928 21.2179 60.8715 21.2179C62.7802 21.2179 63.568 19.5021 63.568 17.7336C63.568 15.8955 62.7802 14.1967 60.8715 14.1967C58.928 14.1967 58.1572 15.8776 58.1572 17.7336V17.7346ZM52.9054 13.0937H54.3407V22.3737H52.9054V13.0937ZM52.8706 11.6405V9.97647H54.3765V11.6405H52.8706ZM37.8579 13.0937H39.1708L39.2235 14.6692C39.6433 13.5304 40.6071 12.8828 41.9021 12.8828C43.2329 12.8828 44.1967 13.6009 44.5986 14.8442C45.0014 13.5831 45.9821 12.8828 47.4353 12.8828C49.2922 12.8828 50.3774 14.1788 50.3774 16.4028V22.3737H48.9412V16.8235C48.9412 15.1247 48.2758 14.1619 47.1379 14.1619C45.6847 14.1619 44.8442 15.1417 44.8442 16.8405V22.3746H43.4071V16.8226C43.4071 15.1595 42.7247 14.1619 41.6038 14.1619C40.1675 14.1619 39.2922 15.1774 39.2922 16.8226V22.3737H37.8569L37.8579 13.0937Z" fill="#020817"/>
</svg>
